<?xml version="1.0" encoding="utf-8"?>
<!-- Generator: Adobe Illustrator 17.0.0, SVG Export Plug-In . SVG Version: 6.00 Build 0)  -->
<!DOCTYPE svg PUBLIC "-//W3C//DTD SVG 1.1//EN" "http://www.w3.org/Graphics/SVG/1.1/DTD/svg11.dtd">
<svg version="1.1" id="图层_1" xmlns="http://www.w3.org/2000/svg" xmlns:xlink="http://www.w3.org/1999/xlink" x="0px" y="0px"
	 width="200px" height="200px" viewBox="0 0 200 200" enable-background="new 0 0 200 200" xml:space="preserve">
<g>
	<path fill="#2071FF" d="M60.055,113.586c-0.15,0-0.246,0-0.341,0c-4.649,0-9.298,0.009-13.946-0.003
		c-3.345-0.009-6.379-1.004-9.04-3.03c-3.264-2.485-5.23-5.773-5.847-9.838c-1.203-7.933,4.116-15.453,11.996-16.986
		c8.126-1.581,15.99,3.614,17.66,11.724c0.775,3.766,0.231,7.358-1.756,10.691c-0.054,0.09-0.14,0.201-0.204,0.267
		c-0.73-0.977-1.46-1.952-2.189-2.929c-0.571-0.765-1.14-1.532-1.715-2.294c-0.101-0.134-0.14-0.246-0.096-0.426
		c1.248-5.095-1.832-10.019-6.963-11.142c-4.897-1.072-9.914,2.31-10.76,7.255c-0.845,4.94,2.203,9.468,7.104,10.533
		c1.137,0.247,2.283,0.245,3.433,0.047c0.279-0.048,0.243-0.119,0.112-0.3c-1.491-2.068-2.977-4.139-4.464-6.21
		c-0.574-0.799-1.149-1.598-1.721-2.399c-0.049-0.068-0.114-0.135-0.069-0.209c0.038-0.055,0.119-0.046,0.202-0.046
		c2.413-0.002,4.826,0.001,7.239-0.006c0.206-0.001,0.34,0.052,0.465,0.226c3.552,4.986,7.168,9.927,10.768,14.879
		C59.956,113.436,59.987,113.485,60.055,113.586z"/>
	<g>
		<path fill="#2071FF" d="M84.119,113.362h-6.007v-3.163h-0.094c-1.547,2.446-3.662,3.668-6.344,3.668
			c-4.816,0-7.224-2.906-7.224-8.72V92.665h6.045v11.921c0,3.094,1.209,4.641,3.63,4.641c1.21,0,2.177-0.424,2.9-1.272
			s1.085-1.996,1.085-3.443V92.665h6.007V113.362z"/>
		<path fill="#2071FF" d="M89.059,85.984c0-0.923,0.328-1.675,0.983-2.255c0.655-0.58,1.494-0.87,2.517-0.87
			c1.048,0,1.896,0.296,2.545,0.889c0.648,0.593,0.973,1.338,0.973,2.236c0,0.91-0.33,1.669-0.991,2.273
			c-0.662,0.605-1.504,0.907-2.526,0.907c-1.011,0-1.847-0.305-2.508-0.916C89.39,87.637,89.059,86.882,89.059,85.984z
			 M89.508,113.362V92.665h6.026v20.697H89.508z"/>
		<path fill="#2071FF" d="M116.457,112.594c-1.447,0.849-3.506,1.272-6.176,1.272c-3.156,0-5.707-0.96-7.653-2.882
			c-1.946-1.921-2.92-4.41-2.92-7.467c0-3.518,1.048-6.29,3.145-8.318c2.096-2.026,4.89-3.04,8.383-3.04
			c2.358,0,4.104,0.324,5.24,0.973v5.184c-1.385-1.011-2.895-1.516-4.528-1.516c-1.847,0-3.328,0.562-4.445,1.685
			c-1.116,1.122-1.675,2.663-1.675,4.622c0,1.896,0.53,3.391,1.591,4.481c1.061,1.092,2.501,1.638,4.323,1.638
			c1.609,0,3.182-0.512,4.716-1.534V112.594z"/>
		<path fill="#2071FF" d="M141.084,113.362h-7.336l-6.887-10.236h-0.074v10.236h-6.045V82.727h6.045v19.5h0.074l6.456-9.563h7.205
			l-7.673,9.769L141.084,113.362z"/>
		<path fill="#2071FF" d="M142.375,99.251c0-4.541,1.326-8.236,3.977-11.088c2.651-2.851,6.154-4.275,10.508-4.275
			c4.143,0,7.477,1.378,10.003,4.136c2.526,2.757,3.789,6.3,3.789,10.629c0,4.517-1.316,8.185-3.948,11.004
			c-0.162,0.175-0.324,0.343-0.486,0.505l7.373,7.111h-9.151l-3.854-3.93c-1.298,0.349-2.695,0.523-4.192,0.523
			c-4.154,0-7.529-1.362-10.124-4.089C143.673,107.052,142.375,103.543,142.375,99.251z M148.869,98.915
			c0,2.82,0.68,5.125,2.04,6.915c1.359,1.79,3.225,2.686,5.595,2.686c2.421,0,4.305-0.857,5.651-2.573
			c1.348-1.715,2.021-4.021,2.021-6.915c0-3.019-0.655-5.404-1.965-7.157s-3.156-2.63-5.539-2.63c-2.421,0-4.326,0.898-5.718,2.695
			C149.564,93.731,148.869,96.058,148.869,98.915z"/>
	</g>
</g>
</svg>
